<svg data-root-id="0080990776209" xmlns="http://www.w3.org/2000/svg" xmlns:xlink="http://www.w3.org/1999/xlink" version="1.1" id="Layer_1" x="233.49" y="285.75" viewBox="70.42007446289062 210.04510498046875 439.43267822265625 138.10488891601562" xml:space="preserve" height="73.68" width="246.99" preserveAspectRatio="xMinYMin" zoom="0.8" editorType="buyer" data-layer-role="icon" style="position: absolute; height: 73.68px; width: 246.99px; top: 285.75px; left: 233.49px;"><path d="M470.58,313.76c4.35,0.62,6.05,3.66,8.32,6.16c-5.16-1.83-9.98-4.74-16.17-4.55c1.38,0.84,2.38,1.44,3.37,2.06    c1.1,0.69,0.98,1.85,0.6,2.72c-0.45,1.03-1.37,0.36-2.12,0.1c-1.34-0.46-2.69-0.89-4.49-1.48c0.75,1.4,2.32,1.73,2.57,3.54    c-4.39-1.56-8.19-5.06-13.19-2.79c3.82,3.5,11.31,2.93,10.47,10.57c-6.39-3.93-11.91-10.22-21.56-6.79    c1.82-2.61,4.01-2.61,5.52-4.49c-2.56,1.05-4.57,1.94-6.63,2.67c-0.71,0.25-1.75,0.42-2.16-0.53c-0.45-1.03,0.51-1.44,1.19-1.82    c4.97-2.82,10.24-5.13,14.89-8.52c0.46-0.34,1.08-0.75,1.66-0.2c0.6,0.56,0.17,1.08-0.15,1.62c-0.97,1.62,0.49,1.21,1.05,1.05    c1.21-0.34,2.68-1.44,2.46-2.35c-0.35-1.46-0.41-3.79-2.62-3.94c-2.38-0.17-3.84-1.36-5.38-3c-2.02-2.14-5.5-1.93-7.6-4.31    c-0.68-0.77-1.67,0.31-1.78,1.34c-0.64,6.19-4.96,10.6-7.72,15.74c-1.17,2.18-3.56,3.33-5.63,4.64c-1.64,1.04-2.56,1.74-0.02,3.01    c3.02,1.51,6.21,8.5,5.6,11.52c-0.05,0.26-0.28,0.58-0.5,0.68c-0.57,0.23-1.04-0.14-1.28-0.57c-1.7-3.04-4.56-1.05-6.83-1.57    c-0.7-0.16-1.08,0.44-0.91,1.2c0.22,1.03,0.24,2.7-0.89,2.3c-1.28-0.46-3.15-0.05-3.97-1.97c-1.15-2.73-1.43-5.7-2.74-8.39    c-0.85-1.74-1.94-2.14-3.61-1.95c-2.15,0.25-1.07,2-1.1,2.89c-0.15,4.78-3.37,8.99-2.41,14.01c-1.53-2.98-1.91-6.06-1.38-9.23    c0.22-1.3,0.83-2.42-1.3-2.83c-0.68-0.13-2.58-0.67-1.92-2.52c0.62-1.76,1.79-1.98,3.4-1.48c0.42,0.13,1.01,0.27,1.41-0.24    c-5.6-2.2-14.15,3-17.53,10.72c-1.89-1.55-0.83-3.85-0.42-5.05c1-2.92-0.04-6.79,3.71-8.68c1.47-0.74,3.01-0.03,4.17-0.61    c-8.41-4.23-11.9-11.53-12.77-20.48c-0.06-0.61,0.06-1.23-0.03-1.83c-0.24-1.73-1.86-1.51-2.89-1.62    c-1.33-0.14-0.77,0.94-0.64,1.73c0.44,2.72-1.31,3.33-3.49,3.43c-1.9,0.08-3.78-0.48-5.64,0.73c-3.39,2.23-4.43,4.66-2.95,8.5    c0.66,1.72,1.37,4.07-0.3,4.57c-1.62,0.48-1.74-2.24-2.41-3.65c-0.75-1.57,0.81-4.23-1.31-4.71c-1.21-0.28-2.93,1.56-4.39,2.49    c-2.99,1.91-6.51,2.92-8.99,5.71c-2.35,2.66-2.14,3.83,1.25,4.76c0.81,0.22,1.84,0.3,1.61,1.38c-0.19,0.89-1.18,0.98-2.03,0.97    c-3.05-0.05-5.64-1.94-5.92-4.34c-0.28-2.36,1.71-4.68,4.79-5.48c0.59-0.15,1.17-0.17,1.63-0.68c3.26-3.55,7.32-6.13,11.33-8.95    c-4.58-1.32-7.58-0.64-10.76,2.32c-0.48,0.44-0.92,1.39-1.7,0.6c-0.62-0.63-0.01-1.38,0.34-1.95c2.33-3.78,6.1-6.32,8.63-9.92    c1.83-2.6,3.82-4.98,6.6-6.63c0.51-0.3,1.06-0.74,0.47-1.47c-0.52-0.64-1.14-0.89-1.84-0.33c-1.52,1.21-3,2.45-4.52,3.66    c-0.46,0.37-0.97,0.93-1.57,0.33c-0.54-0.54-0.26-1.17,0.16-1.64c2.68-2.99,5.36-6.02,9.6-6.8c0.84-0.15,1.98-0.65,2.02,1.28    c0.02,1,1.61,1.23,2.73,0.72c1.11-0.51,2.14-1.25,3.29-1.63c2.33-0.77,3.88-1.87,2.54-4.96c4.3,4.28,7.99,0.74,11.7-0.37    c1.19-0.36,0.58-2.46,1.54-3.54c0.39-0.43-0.43-1.81,0.97-1.71c1.19,0.09,2.49,0.17,2.95,1.69c0.23,0.74,0.15,2.53,1.34,1.71    c2.26-1.57,4.49-1.13,6.88-1.03c3.65,0.15,2.64-2.71,2.76-4.74c0.09-1.6-0.09-3.43,2.37-1.69c0.11-1.61,0.18-3.23,0.34-4.84    c0.07-0.67,0.58-1.11,1.27-1.08c0.89,0.03,0.83,0.74,0.78,1.35c-0.28,3.25,2.28,5.81,2.2,9.01c-0.01,0.5,0.12,1.09,0.8,1.07    c0.89-0.02,0.89-0.79,0.83-1.34c-0.29-2.73,0.44-5.02,2.78-6.62c0.4-0.27,0.94-0.64,1.33-0.56c0.77,0.15,0.7,0.9,0.58,1.51    c-0.43,2.06,0.26,4.05,0.34,6.07c0.03,0.86,0.39,1.31,1.22,1.46c0.99,0.17,1.32-0.57,1.45-1.23c0.39-1.89,0.69-3.81,0.93-5.72    c0.19-1.5,0.12-3.74,1.88-3.56c1.12,0.12,2.58,2.02,2.61,3.95c0.04,2.68-0.52,5.27-1.21,7.83c-0.55,2.06-0.77,4.11-0.51,6.34    c1.57-0.45,2.02-1.65,2.69-2.62c3.16-4.57,5.71-9.49,8.12-14.49c0.43-0.9,0.73-2.13,2.12-1.56c1.52,0.61,1.03,1.79,0.51,2.82    c-1.63,3.24-1.6,6.87-2.9,10.99c2.01-1.93,2.42-4.12,4.67-5.54c0.41,4.23-3.95,7.76-0.79,11.56c0.41-1.67,4.09-2.5,1.52-5.43    c-0.28-0.32,0.17-0.94,0.54-0.89c3.32,0.41,3.4-2.6,4.66-4.34c0.89-1.24,1.65-2.57,2.52-3.82c0.28-0.4,0.75-0.78,1.31-0.51    c0.77,0.37,0.52,1.01,0.26,1.57c-0.95,2.03-1.92,4.05-2.87,6.08c-0.28,0.6-1.01,1.3-0.16,1.85c0.84,0.54,1.29-0.35,1.68-0.88    c1.55-2.12,3-4.31,5.98-4.66c0.64-0.07,1.26-0.25,1.68,0.25c0.51,0.61-0.04,1.13-0.39,1.61c-1.18,1.63-2.63,3.09-3.34,5.52    c1.67-0.55,2.21-1.76,2.81-2.79c1.43-2.46,2.89-4.9,4.73-7.1c0.48-0.57,0.77-1.32,1.63-0.85c0.67,0.36,0.43,1.04,0.24,1.64    c-0.97,2.99-1.43,6.15-2.98,8.95c-0.53,0.95-1.34,2.11,0.42,2.69c1.38,0.45,2.8,2.34,4.26,0.19c1.14-1.68,2.13-3.47,3.22-5.19    c0.32-0.49,0.71-1.21,1.4-0.94c0.74,0.29,0.41,0.99,0.22,1.57c-0.6,1.78-0.19,3.85-1.75,5.38c-0.5,0.49-1.88,1.36-0.56,2.16    c1.24,0.75,2.39,2.54,4.29,1.13c1.59-1.18,2.67-2.81,3.94-4.26c0.54-0.61,0.99-1.33,1.62-1.83c1.08-0.87,2.52-2.24,3.63-1.66    c1.59,0.82-0.03,2.26-0.3,3.44c-0.16,0.67-0.16,1.38-0.25,2.28c2.07-0.68,2.53-3.25,4.74-3.32c0.66-0.02,1.39-0.74,1.91,0.13    c0.35,0.59-0.05,1.13-0.39,1.67c-1.59,2.49-2.89,5.16-4.8,7.53c2.32-2.29,6.15-0.7,8.4-3.57c0.62-0.78,2.8-0.3,4.26-0.49    c1.01-0.13,0.63,1.19,0.06,1.82c-1.16,1.29-2.37,2.54-3.56,3.8c-2.79,2.97-5.57,5.95-8.34,8.9c2.32,2.68,4.26,0.61,6.31-0.3    c0.77-0.34,1.76-1.24,2.42-0.12c0.57,0.97-0.39,1.73-1.11,2.25c-4.67,3.38-9.79,5.91-15.26,7.7    C474.98,311.45,473.13,312.23,470.58,313.76z M427.39,311.82c-1.55,0-2.4-0.82-3.24-1.42c-2.23-1.6-4-1.87-6.37,0.19    c-3.32,2.88-7.47,3.01-11.64,1.86c-1.44-0.4-1.8-0.86-0.68-2.24c2.72-3.35,1.67-9.35-1.91-11.77c-1.89-1.28-4.04-1.88-6.09-0.8    c-2.3,1.22-3.5,1.13-3.65-1.75c-0.05-1.02-0.6-1.67-1.73-1.79c-0.97-0.1-1.58,0.33-1.99,1.1c-0.62,1.16-1.36,2.29-1.35,3.69    c0.11,7.83,3.29,14.12,9.54,18.85c1.57,1.18,3.79,1.72,3.56,4.44c-0.08,0.95,1.08,0.86,1.7,0.76c5.12-0.87,10.45,1.76,15.55-2.52    c2.85-2.39,6.5-4.22,8.9-7.17c1.6-1.97,4.68-4.09,2.19-7.5c-0.09-0.13,0.1-0.69,0.2-0.7c3.83-0.47,1.05-3.15,1.5-4.71    c0.42-1.45-0.82-3.32,1.27-4.32c-1.32-1.05-2.81-1.01-4.21-1.22c-1.02-0.15-2.14,0.04-2.55,1.16c-0.48,1.35,0.66,1.73,1.6,2.13    c0.62,0.27,1.35,0.37,1.74,1.08c-3.29-0.76-5.92,1.43-5.12,4.53c0.29,1.14,0.56,1.13-0.7,1.29c-1.3,0.16-2.12,1.49-2.19,2.62    c-0.06,1.14,1.36,1.3,2.32,1.58C425.45,309.58,426.47,310.4,427.39,311.82z M419.28,297.5c-0.02-1.43-0.91-2.82-2.93-3.06    c-1.8-0.22-4.04,2.62-4.03,5.02c0.01,1.75,0.99,2.89,2.75,3.08C416.83,302.73,419.2,300.1,419.28,297.5z M375.94,295.46    c-2.37-1.1-3.82-3.68-5.99-2.72c-2.49,1.09-4.68,3.02-7.16,5.83C367.62,297.85,371.87,298.55,375.94,295.46z M463.44,285.89    c-0.08-0.6-0.89-0.66-1.48-0.91c-0.99-0.42-2-1.15-2.92,0.2c-0.96,1.42-2.01,2.78-3,4.18c-0.42,0.59-0.92,1.24,0.24,1.59    C457.44,291.29,463.26,287.4,463.44,285.89z M391.34,287.82c-0.84-1.11-1.61-2.14-2.39-3.15c-0.24-0.32-0.55-0.59-0.78-0.92    c-0.67-0.95-1.44-0.41-2.15-0.13c-0.64,0.25-0.8,0.7-0.53,1.43C386.41,287.51,388.34,288.52,391.34,287.82z M376.53,288.51    c1.72,1.15,3.11,2.17,4.59,3.03c0.66,0.38,1.9,0.53,1.62-0.68c-0.37-1.57-1.57-2.92-2.91-3.78    C378.73,286.38,377.86,287.62,376.53,288.51z M422.4,325.1c-1.47,0.71-3.22-0.18-4.58,0.9c-0.37,0.3,0.93,3.02,2.45,4.72    C416.05,326.24,424.42,328.58,422.4,325.1z M357.24,303.02c1.94-0.21,3.13-0.29,4.3-0.49c0.63-0.1,1.39,0.43,1.88-0.36    c-0.98-0.5-0.4-1.76-1.04-2.31c-0.55-0.47-1.34-0.34-1.93,0.2C359.57,300.86,358.7,301.67,357.24,303.02z M394.33,286.26    c0.8-1.72-0.16-2.92-0.76-4.07c-0.57-1.1-1.62-0.39-2.46-0.22c-0.45,0.09-1.13,0.2-0.93,0.89c0.24,0.83,0.96,0.71,1.69,0.82    C393.1,283.86,393.05,285.46,394.33,286.26z M409,281.2c-0.26-1.19-0.34-2.69-2.29-2.79c-1.08-0.06,0.58,1.38-0.67,1.2    c0.25,1.23,0.74,2.3,2.02,2.76C409.02,282.72,408.97,281.99,409,281.2z M420.64,281.58c0.64-1.3,2.09-2.27,1.54-3.97    c-0.03-0.11-0.68-0.19-0.81-0.06C420.24,278.67,420.29,280.09,420.64,281.58z M401.96,282.41c-0.53-0.68-0.33-2.22-1.94-2.14    c-0.48,0.03-1.12,0.22-0.81,0.93c0.44,0.99,0.73,2.21,2.09,2.35C401.9,283.6,402.25,283.22,401.96,282.41z" name="Layer 1" zoom="0.8" data-layer-id="2597215876277" style="fill: rgb(251, 144, 177); fill-opacity: 1;"></path><path d="M158.5,325.43c-1.63,1.68-3.25,3.37-4.91,5.02c-0.4,0.4-0.78,1.07-1.51,0.76c-0.71-0.3-0.49-1.03-0.56-1.61    c-0.28-2.22,0.69-4.16,1.81-6.62c-3.61,1.42-4.9,4.44-6.87,6.54c-0.86-0.04-0.99-0.53-1.01-1.05c-0.07-2.02-1-1.73-2.01-0.69    c-0.7,0.72-1.18,1.66-1.81,2.45c-0.37,0.47-0.36,1.69-1.42,1.04c-0.71-0.44-0.56-1.28-0.17-1.93c1.16-1.92,2.41-3.78,3.54-5.72    c0.43-0.73,1.25-1.74,0.17-2.4c-0.78-0.48-1.9-0.83-2.87-0.01c-1.68,1.42-3.38,2.82-5.31,4.13c0.96-2.32,2.51-4.45,2.24-7.26    c-3.91,0.04-6.37,2.85-9.23,4.8c-1.4,0.95-2.98,2.81-4.38,1.36c-1.44-1.51,1.07-2.43,1.85-3.58c1.39-2.05,3.47-3.53,5.33-5.3    c-1.35-0.95-2.12-0.25-2.44,0.34c-1.2,2.18-3.51,2.69-5.39,3.83c-0.76,0.46-1.76,1.09-2.49,0.15c-0.79-1.03,0.33-1.61,0.94-2.23    c0.42-0.43,0.91-0.8,1.17-1.57c-2.85,1.37-5.69,2.77-8.56,4.1c-0.67,0.31-1.56,1.13-2.18,0.17c-0.56-0.87,0.37-1.49,0.96-1.99    c1.47-1.26,2.99-2.46,4.52-3.64c0.98-0.76,2.39-1.79,1.81-2.81c-0.75-1.32-2.49-1.66-4.08-0.9c-2.12,1.01-4.21,2.07-6.31,3.12    c-0.92,0.46-2.08,1.18-2.72,0.08c-0.72-1.23,0.73-1.69,1.53-2.19c1.69-1.06,3.45-2.01,5.48-3.16c-6.33-2.55-12.26-4.93-18.18-7.34    c-1.03-0.42-2.03-0.97-2.97-1.56c-0.51-0.32-0.92-0.86-0.61-1.55c0.32-0.7,0.99-0.75,1.58-0.57c2.25,0.68,4.49,1.37,6.7,2.16    c1.91,0.68,3.78,1.39,5.91,0.56c-0.73-2.27-2.99-2.66-4.82-3.58c-1.28-0.64-2.61-1.17-3.87-1.85c-0.8-0.43-1.75-1.02-1.31-2.11    c0.44-1.1,1.51-0.8,2.41-0.61c0.39,0.08,0.77,0.24,1.39,0.44c-0.03-1.26-2.22-1.87-1.01-3.06c1.07-1.05,2.21,0.45,3.65,0.34    c-2.12-2.42-4.86-4.2-5.88-7.62c2.21,0.02,2.99,1.95,4.46,2.53c1.4,0.55,1.79,4.11,4.43,1.62c0.1-0.1,2.02,1.72,3.57,3.05    c-1.53-4.02-3.22-7.43-3.84-11.13c-0.25-1.49-1.44-3.88,0.2-4.43c2.11-0.72,1.82,2.09,2.52,3.34c1.66,3,2.5,6.47,5.37,8.76    c0.82,0.66,1.34,1.48,2.5,0.44c0.93-0.84,1.06-1.56,0.46-2.64c-1.67-3.03-3.22-6.12-4.05-9.51c-0.22-0.91-0.69-1.93,0.49-2.35    c1.21-0.43,1.45,0.76,1.85,1.54c0.46,0.9,0.87,1.84,1.39,2.71c0.22,0.36,0.77,1.15,1.11,0.59c1.61-2.64,2.26-0.39,2.87,0.59    c1.28,2.07,3.7,0.36,5.24,1.69c0.23,0.2,1.24-0.77,1.08-2.02c-0.39-3.13-1.19-6.15-1.95-9.19c-0.23-0.92-0.65-2.3,0.49-2.71    c1.37-0.49,1.71,1.1,1.82,1.91c0.47,3.4,5.18,2.48,5.28,6.07c1.17-0.79,0.36-2.3,1.64-2.35c1.14-0.05,1.4,1.03,1.82,1.81    c1.61,3,2.82,3.24,5.35,0.92c0.39-0.35,0.6-0.88,1.18-0.51c3.51,2.29,2.36-0.5,2.15-2.01c-0.44-3.16-0.08-6.31-0.08-9.47    c0-0.75,0.2-1.53,1.07-1.61c1-0.09,1.03,0.84,1.17,1.5c0.71,3.17,1.39,6.34,2.07,9.52c0.83,3.9,3.89,2.04,5.99,2.11    c2.39,0.08,1.67-2.02,1.74-3.44c0-0.1-0.03-0.2-0.02-0.3c0.06-1.53-1.65-4.05,0.92-4.23c1.77-0.13,1.17,2.59,1.31,4.12    c0.05,0.61,0,1.22-0.01,1.84c-0.02,1.26,0.25,2.21,1.84,2.19c1.52-0.02,1.54-1,1.54-2.08c0.02-2.78,0.78-5.42,1.6-8.04    c0.28-0.9,0.65-2.15,2.02-1.86c1.16,0.24,1.07,1.34,1.12,2.24c0.14,2.54,0.67,5.05,0.45,7.62c-0.08,0.92-0.48,2.13,1.04,2.46    c1.57,0.34,1.55-0.85,1.84-1.81c0.69-2.23,2.23-4.13,2.5-6.53c0.09-0.76,0.52-1.41,1.35-1.41c1.06,0,1.18,0.85,1.36,1.69    c0.66,3.05,0.46,6.18,0.55,9.41c1.73-0.53,1.55-1.93,2.21-2.75c0.59-0.73,0.78-2.28,2.09-1.76c1.48,0.58,0.58,1.93,0.38,2.95    c-0.15,0.77-0.52,1.5-0.81,2.27c1.18,1.02,3.51-4.67,3.6,0.88c1.6-0.98,1.75-3.14,3.66-3.59c1.71-0.41,2.71-0.1,2.18,1.85    c-0.39,1.45-1.45,3.46,0.13,4.09c2.53,1.02,4.86,3.84,8.03,2.04c1.16-0.66,2.34-0.22,3.17-0.08c1.58,0.28,2.83,0.22,4.17-0.59    c0.59-0.36,1.48-0.51,1.89,0.29c0.32,0.63-0.29,1.11-0.71,1.55c-0.14,0.15-0.35,0.25-0.45,0.41c-0.62,1.03-3.34,1.37-1.88,2.87    c1.32,1.35,3.45,3.31,5.88,1.08c0.52-0.47,1.18-0.81,1.8-1.15c0.56-0.31,1.24-0.44,1.71,0.04c0.69,0.69,0.23,1.43-0.35,1.82    c-3.17,2.15-1.26,3.45,0.75,4.72c2.07,1.31,3.59,3.29,5.79,4.47c1.61,0.86,0.49,1.7-0.48,2.03c-1.24,0.42-2.6,0.48-3.96,1.31    c0.62,0.18,1.09,0.27,1.52,0.44c0.99,0.38,2.67-0.73,2.97,0.74c0.36,1.73-1.99,0.83-2.58,1.95c3.83,4.57,9.68,7.22,12.64,12.95    c-6.37,0.29-8.39-6.47-13.74-7.92c-0.7,2.96-1.51,5.99-3.41,8.54c-0.89,1.2-0.25,1.51,0.81,1.85c3.49,1.13,6.94,2.42,10.46,3.46    c1.64,0.48,3.1,0.08,3.16-2.13c0.02-0.82,0.08-1.92,1.01-2c1.27-0.12,1.12,1.28,0.87,1.79c-0.61,1.23,1.98,1.7,0.62,2.75    c-1.36,1.05-2.86,1.98-4.73,1.93c-4.24-0.12-8.25-1.34-12.2-2.71c-2.12-0.73-4.2-1.51-7.13-2c2.29,1.56,4.01,2.71,5.71,3.9    c0.42,0.29,0.85,0.72,0.68,1.26c-0.18,0.56-0.79,0.53-1.3,0.58c-1.71,0.17-6.81-2.76-7.27-4.79c-0.29-1.28-0.67-1.37-1.64-1.44    c-0.74-0.06-1.94,0.17-1.79-1.04c0.11-0.89,1.15-1.03,2-1.02c2.15,0.03,4.33-0.14,6.43,0.18c1.79,0.27,2.6-0.44,2.62-1.94    c0.05-2.93,1.43-5.5,1.99-8.28c0.2-1.02,0.36-1.78-0.65-2.32c-2.29-1.23-4.14-3.39-7.1-3.27c-1.2,0.05-2.19-0.64-2.69-1.74    c-0.52-1.16-1.36-0.95-2.4-1.15c-3.49-0.66-4,1.32-4.61,3.99c-1.43,6.25-4.55,11.54-9.89,15.35c-0.5,0.36-0.98,0.76-1.51,1.04    c-0.53,0.28-1.13,0.43-2.6,0.97c4.79-0.76,6.25,2.97,9.03,4.45c0.32,0.17,0.59,0.98,0.46,1.33c-0.75,1.87,0.05,3.6,0.27,5.39    c0.15,1.17,0.37,2.66-1.47,2.77c-1.53,0.09-2.57-0.53-2.37-2.34c0.13-1.22-0.15-2.36-0.75-3.5c-1.1,0.66-0.26,2.73-1.88,2.46    c-1.4-0.23-1.23-1.88-1.28-2.81c-0.12-2-1.92-2.74-2.72-4.21c-0.39-0.72-1.96-0.5-2.85-0.01c-0.81,0.44-0.25,1.29-0.07,1.94    c0.22,0.76,0.55,1.49,1.14,3.04c-2.99-3.28-2.95-0.98-3.14,0.73c-0.25,2.11-0.01,4.28-0.74,6.4c-2.56-0.36-2.95-2.03-2.72-4.12    c0.23-2.12,0.19-4.3,1.02-6.3c0.78-1.88-0.17-2.05-1.65-2.06c-2.04-0.01-4.09,0-6.1-0.52c-2.55-0.66-4.8-0.52-5.94,2.36    C158.66,324.86,158.58,325.15,158.5,325.43z M187.54,300.46c-1.62-0.54-2.65-0.19-3.08,1.48c-1.19,4.58-6.52,5.45-8.61,9.29    c-0.05,0.09-1.67-1.93-2.47,0.45c-0.4,1.19-1.71-0.41-2.86-0.31c-7.69,0.71-11.93-2.87-15.61-9.13c-1.49-2.54-1.19-4.92-0.76-7.46    c0.16-0.97,0.93-2.06-0.69-2.42c-1.57-0.35-1.44,0.93-1.72,1.89c-0.49,1.64,0.37,3.55-0.89,5.26c-1.25-1.25-0.61-3.37-2.59-4.23    c0.09,3.98,2.45,6.98,3.09,10.39c0.51,2.7,2.11,4.08,3.84,5.74c2.04,1.96,4.25,3.46,6.99,4.19c2.25,0.6,3.32,3.4,6.32,2.94    c2.68-0.41,5.23-0.27,7.81-1.91c2.53-1.62,5.2-3.16,7.85-4.65c5.76-3.24,6.6-9.18,7.09-15.07c0.07-0.88,0.7-2.21-0.71-2.62    c-1.3-0.38-2.06,0.24-2.11,1.69c-0.01,0.26-0.56,0.53-0.9,0.74C184.79,298.37,184.78,298.45,187.54,300.46z M158.23,319.05    c-7.61-4.06-12.48-9.79-13.19-18.44c-0.29-3.57-0.26-3.55-3.73-2.32c-0.56,0.2-1.21,0.21-1.81,0.23c-3.56,0.1-7.16,2.64-8.34,5.83    c-0.27,0.73,0.28,0.84,0.6,1.16c4.86,4.95,10.2,9.32,16.11,12.98c1.3,0.81,2.58,1.52,4.14,0.23c0.78-0.65,2.21-0.68,2.84,0.14    C155.94,320.3,156.92,319.49,158.23,319.05z M164.27,307.8c4.23,0.07,7.38-2.32,7.42-5.63c0.03-2.8-3.37-5.81-6.71-5.93    c-3.09-0.12-6.01,2.85-6,6.1C159,305.62,161.06,307.75,164.27,307.8z M178.74,294c-1.41,0.28-2.98,0.82-3.14,3.03    c-0.14,2.03,1.46,2.99,2.83,2.95c1.78-0.06,2.9-1.72,3.14-3.5C181.8,294.85,180.74,294.1,178.74,294z M134.47,313.57    c0.23-0.25,0.47-0.51,0.7-0.76c-1.76-2.03-3.64-3.96-5.24-6.11c-1.4-1.88-2.69-1.82-4.79-0.05    C129.1,308.06,131.93,310.62,134.47,313.57z M189.5,286.22c1.39-0.3,3.36-0.76,3.11-1.94c-0.33-1.53-2.55-1.75-4.01-2.03    c-1.41-0.27-1.43,1.66-1.48,2.42C187.01,286.06,188.6,285.91,189.5,286.22z M213.82,296.08c0.04-0.21,0.09-0.41,0.13-0.62    c-1.15-0.84-2.29-1.69-3.44-2.51c-1.2-0.86-1.87,0.17-2.61,0.8c-0.44,0.37-1.28,0.68-1,1.36c0.42,1,1.51,0.87,2.41,0.9    C210.81,296.06,212.31,296.06,213.82,296.08z M204.4,289.35c-1.69-0.9-2.69-1.36-3.62-1.93c-1.22-0.76-1.89,0.13-2.59,0.81    c-0.39,0.38-1.06,0.9-0.5,1.5c0.62,0.67,1.49,1.13,2.45,0.91C201.29,290.38,202.42,289.96,204.4,289.35z M140.59,283.62    c0.29-0.08,0.61-0.08,0.66-0.2c0.76-1.75-0.68-3.19-0.69-4.85c-0.01-0.91-0.63-1.21-1.46-1.11c-0.29,0.04-0.66,0.12-0.83,0.32    c-0.94,1.15,0.11,2.1,0.48,3.04C139.16,281.85,139.16,283.29,140.59,283.62z M122.37,292.5c-2.61-1.12-4.77-1.75-5.76-4.55    C116.21,291.73,118.74,293.78,122.37,292.5z M146.07,282.69c0.22-0.14,0.44-0.27,0.66-0.41c-0.5-1.51-0.96-3.03-1.52-4.52    c-0.19-0.49-0.26-1.35-1.15-1.09c-0.96,0.28-0.74,1.09-0.6,1.78C143.81,280.22,145.61,280.99,146.07,282.69z M153.05,279.71    c0-1.32,1.16-2.81-0.47-3.75c-0.43-0.25-1.66-0.05-1.69,0.09C150.61,277.72,151.81,278.69,153.05,279.71z" name="Layer 2" zoom="0.8" data-layer-id="1129816976310" style="fill: rgb(251, 144, 177); fill-opacity: 1;"></path><path d="M213.94,226.47c1.27-1.76,2.99-2.23,5.09-1.9c3.53,0.56,7.08,1,10.61,1.55c2.32,0.36,3.51,2.27,3.61,4.82    c0.04,1,1.03,1.93,1.46,2.94c0.79,1.83,1.49,3.7,2.34,5.83c0.87-1.81-0.51-3.3-0.15-5.31c2.65,4.22,0.23,9.14,3.55,13.32    c0.08-3.25,0.78-5.95-0.23-8.71c-1.3-3.52-2.19-7.21-4.45-10.31c-0.4-0.55-0.61-1.16-0.09-1.63c0.43-0.4,0.94,0.02,1.38,0.26    c2,1.08,2.94,3.01,4.07,4.85c1.4,2.28,1.3,5.18,3.52,7.24c0.74,0.69-0.09,3.06-0.24,5.22c1.61-3.47,1.22-6.58,0.83-9.83    c3.46,3.15,1.6,12.31-4.08,20.68c-0.24-3.29,2.31-6.08,1.04-9.56c-1.53,2.1-0.33,4.88-2.18,6.79c-0.67-1.3,0.58-2.8-0.51-3.97    c-1.02,0.56-0.54,1.47-0.65,2.2c-0.16,1.04-0.21,1.2-1.4,0.72c-0.75-0.31-0.54,0.17-0.65,0.41c-0.3,0.68-0.04,1.92-1.18,1.8    c-0.9-0.1-0.92-1.28-1.16-1.98c-4.08-12.27-9.86-17.4-24.45-23.61c1.92,2.63,3.95,4.45,6.19,6.12c5.5,4.12,10.68,8.59,14.56,14.33    c0.55,0.82,1.87,1.77,0.62,2.86c-1.36,1.18-2.09-0.14-2.92-1.05c-2.45-2.68-4.49-5.74-7.54-7.88c2.02,3.46,5.8,5.68,7.4,9.94    c-2.31-0.28-2.76-2.41-4.44-2.75c-0.7,0.97,0.87,2.18-0.87,3.46c0.06-5.74-3.94-8.23-8.13-10.89c0.36,1.92,1.48,3,2.8,4.03    c1.26,0.98,2.82,1.65,3.69,3.39c-1.61-0.19-2.23-1.95-3.76-1.93c-0.36,1.57,1.31,2.23,1.61,4.18c-2.69-1.63-5.33-2.42-8.04-2.75    c-2.62-0.32-4.72-1.7-6.94-2.83c-3.34-1.7-7.14-2.1-10.44-3.91c-1.41-0.77-2.71-1.3-3.77-2.81c-1.52-2.15-4.47-1.34-6.81-1.96    c3.91,3.21,6.34,8.49,12.55,8.33c-4.09-0.06-7.91-1-11.72-1.94c-3.67-0.91-7.37-1.77-10.96-2.94c-1.5-0.49-2.67,0.21-4,0.24    c-3.19,0.06-4.59-3.6-7.97-3.51c-2.38,0.07-4.77-1.05-7.19-1.42c-1.61-0.25-3.6-1.64-4.7,1.04c-0.12,0.28-1.34,0.21-2.04,0.15    c-12.76-1-25.52-0.76-38.28,0.13c-7.56,0.53-15.02,1.84-22.46,3.15c-2.75,0.48-5.05,2.1-7.44,3.47c-1.09,0.62-1.99,1.64-3.6,1.87    c9.44-10.15,20.84-17.01,32.71-23.25c6.42-3.38,12.99-5.71,20.32-6.25c4.03-0.3,8.01-1.72,12.12-1.45    c7.8,0.52,15.61,1.06,23.38,1.85c15.17,1.56,30.09,4.7,45.02,7.7c1.7,0.34,3.34,0.95,5.01,1.44c-0.54,0.89-1.62,1.6,0.32,2.45    c2.94,1.28,5.69,2.99,8.59,4.56c-0.41-1.64-2.78-2.19-2.32-4.45c0.65,0.27,1.17,0.37,1.54,0.66c4.66,3.73,7.91,8.65,11.52,13.94    c0.01-0.88,0.12-1.22,0.01-1.44c-3.91-7.1-8.84-13.16-16.77-16.09C215.89,225.68,214.85,225.85,213.94,226.47z M167.19,238.06    c-0.46-2.05-1.25-2.77-2.96-3.11c-9.91-1.99-19.84-4-29.5-7.04c-3.85-1.21-7.73-1.86-11.75-1.37c-0.83,0.1-2.11-0.27-2.23,0.97    c-0.07,0.81-0.02,1.87,0.79,2.54c0.92,0.75,1.7,0.45,2.38-0.35c0.62-0.72,1.36-0.66,2.23-0.55c6.29,0.82,12.54,1.8,18.69,3.36    C152.15,234.37,159.47,236.15,167.19,238.06z M185.64,225.59c1.94,0.74,3.45,1.28,4.92,1.91c0.72,0.3,1.79,0.34,1.93,1.27    c0.18,1.24-1.64,0.02-1.85,0.95c3.21,2.75,7.03,3.41,10.58,4.72c-1.45-1.55-3.78-1.75-5.26-3.69c3.44-0.71,5.96,1.14,8.75,1.83    C199.27,228.33,193.83,224.17,185.64,225.59z M184.7,242.29c-3.21-3.95-11.31-6.06-15.84-4.06    C174.23,240.29,179.58,240.83,184.7,242.29z M189.06,235.15c3.64,4.23,9.21,4.36,13.88,6.45    C198.79,238.48,194.14,236.4,189.06,235.15z M187.25,236.59c-4.42-2.6-9.44-3.49-14.26-4.95    C177.22,234.76,181.59,237.43,187.25,236.59z M205.04,242.22c3.14,3.18,7.11,4.09,11.07,6.32    C213.58,243.89,210.18,242.02,205.04,242.22z M210.66,231.4c-2.55-4.25-6.07-4.8-10.01-4.38    C203.88,228.22,206.46,230.92,210.66,231.4z M234.7,237.04c-1.88-4.94-5.15-7.01-9.36-7.96    C228.26,231.56,231.17,234.04,234.7,237.04z M209.9,241.2c-3.35-2.85-7.11-4.86-11.34-5.96    C202.25,237.41,205.38,240.6,209.9,241.2z M217.3,239.95c-2.6-3.16-5.83-5.43-9.96-7.52C209.86,236.68,213.97,237.83,217.3,239.95    z M147.1,224.34c3.49,1.56,7.36,2.37,11.44,1.9C154.73,225.61,150.92,224.98,147.1,224.34z M130.18,235.01    c-1.6-0.42-3.04-1.08-4.49-1.81c-0.61-0.31-1.48-0.09-1.59,0.87c-0.11,0.95,0.66,0.85,1.23,0.86    C126.95,234.98,128.57,234.99,130.18,235.01z M226.83,227.71c1.47,0.78,2.53,2.29,4.48,2.02c0.19-0.03,0.51-0.54,0.47-0.58    c-1.2-1.42-2.79-1.92-4.61-1.8C227.1,227.35,227.05,227.47,226.83,227.71z M238.81,231.22c0.84,2.22,1.68,4.43,2.51,6.65    C241.44,235.27,240.55,233.08,238.81,231.22z" name="Layer 3" zoom="0.8" data-layer-id="0229077276342" style="fill: rgb(251, 144, 177); fill-opacity: 1;"></path><path d="M342.64,250.95c-3.14-7.6-4.31-15.5-4.51-23.55c0.33-0.05,0.66-0.1,1-0.14c0.14,1.98-0.3,4.27,0.54,5.89    c2.04,3.92,2.11,8.21,3.41,12.32c0.02-1.42,0.54-3.09-0.03-4.21c-1.91-3.72-0.67-6.95,1.58-9.65c3.65-4.37,8.13-7.66,13.92-9.04    c2.26-0.54,3.3,1.57,5.19,1.44c-3.2,0.32-6.49-0.49-9.5,1.36c-2.67,1.64-5.41,3.14-7.54,5.59c7.22-4.27,15.16-5.56,23.34-5.87    c1.88-0.07,2.85-1.77,4.59-2.23c4.87-1.29,9.88-1.61,14.8-2.46c15.83-2.74,31.79-4.07,47.82-5.23c9.86-0.71,18.94,1.79,28.37,2.89    c2.56,0.3,4.86,1.59,7.09,2.84c7.49,4.17,15.36,7.75,21.9,13.43c3,2.6,6.98,3.91,9.46,7.19c0.34,0.46,1.12,0.74,0.62,1.46    c-0.34,0.49-0.91,0.24-1.42,0.21c-2.98-0.17-5.71-1.43-8.6-2.02c-17.72-3.67-35.61-4.71-53.66-4.28    c-1.81,0.04-4.42,1.72-5.63-1.51c-0.12-0.32-2.14-0.09-3.22,0.15c-10.17,2.23-20.33,4.54-30.5,6.76    c-3.97,0.87-7.98,1.55-12.12,1.94c4.39-0.38,7.04-3.47,10.26-5.84c5.74-4.23,12.63-6.2,19.32-8.42c6.59-2.19,13.2-4.31,19.92-6.1    c-6.22,0.92-12.47,0.84-18.44,4c-5.41,2.87-11.56,4.44-17.25,6.95c-5.05,2.22-9.93,4.73-14.41,7.96    c-0.72,0.52-1.44,1.64-1.48-0.48c-0.01-0.79-1-0.09-1.46,0.07c-3.38,1.19-6.81,2.25-10.06,3.73c-2.86,1.3-6.43,0.44-8.83,3.02    c-0.3,0.32-0.78,0.3-1.07-0.08c-0.49-0.64-0.02-1.11,0.34-1.61c1.87-2.61,4.39-4.56,6.89-6.48c3.95-3.03,7.98-5.96,11.87-9.09    c-5.58,1.55-9.11,6.86-14.02,8.7c-5.51,2.06-8.99,6.28-13.88,9.14c-0.33-1.75,0.83-2.57,1.62-3.54    c5.82-7.09,13.89-11.3,21.2-16.48c1.28-0.91,1.31-0.87,1.54-2.05c2.91-1.26,6.1-1.81,8.7-3.28c-5.06-0.58-9.74,0.61-13.46,4.71    c1.6-0.49,3.21-0.98,4.81-1.47c-1.88,1.26-3.91,2.01-6.16,2.51c-3.69,0.83-6.42,3.5-9.21,5.85c-2.78,2.34-5.39,4.85-7.62,7.84    c-1.24,1.67-3.2,3.13-5.38,5.29c0.4-2.85,0.69-4.86,0.97-6.87c-0.2-0.09-0.39-0.19-0.59-0.28c-1.14,2.36-2.28,4.73-3.42,7.09    c-0.36,0.74,0.06,2.28-1.82,1.31c-1.22-0.63-2.94-0.45-2.65-2.55c0.01-0.1,0.04-0.2,0.08-0.29c2.28-4.73,0.67-9.86,1.73-15.02    c-2.67,1.2-2.64,3.48-2.82,5.47c-0.34,3.84-0.92,7.7-0.11,11.54c0.21,1.02,0.02,1.95-0.74,2.42c-0.6,0.37-0.88-0.62-1.32-0.99    L342.64,250.95z M400.85,240.34c21.47-3.91,42.33-10.75,64.38-12.26c-0.54-1.56-1.34-1.45-2-1.55c-4.1-0.6-8.1-0.17-12.1,0.96    c-10.23,2.9-20.68,4.73-31.18,6.37C413.24,234.91,406.94,237.35,400.85,240.34z M348.42,239.33c6.45-8.35,6.45-8.35,8.83-8.62    c-5.22,6.08-5.22,6.08-5.1,8.46c1.59-1.72,3.17-3.43,4.75-5.14c1.84-1.99,3.54-3.99,6.64-4.32c2.01-0.22,3.91-1.4,5.33-3.23    c-3.48-0.57-9.49,0.67-15.07,2.22C348.5,230.17,347.34,234.16,348.42,239.33z M355.23,243.68c7.09-7.51,15.38-13.42,24.46-18.65    c-6.7-1.62-10.47,2.85-14.58,6.13C360.91,234.51,356.33,237.75,355.23,243.68z M383.37,235.04c5.42-0.71,8.39-4.64,12.03-7.58    c-0.6-0.6-1.9,0.66-2.25-1.09c2.19-0.83,4.41-1.67,7.4-2.79c-5.46-0.74-8.6,2.2-12.13,4.3c0.73,0.9,2.11,0.2,2.7,1.47    C388.59,231.2,386.06,233.05,383.37,235.04z M382.42,240.05c7.02-3.64,15.31-3.45,22.21-7.43    C396.58,233.14,389.14,235.51,382.42,240.05z M370.99,244.63c3.92-1,6.13-3.14,9.15-5.23    C376.3,240.13,373.86,241.94,370.99,244.63z M394.11,230.7c2.49-0.96,4.98-1.91,7.63-2.93    C398.35,226.86,396.26,228.86,394.11,230.7z M455.35,234.77c1.5,0.02,3,0.06,4.5,0.05c0.56,0,1.26,0.24,1.57-0.47    c0.1-0.22,0.03-0.62-0.12-0.83c-0.5-0.7-1.27-0.68-1.86-0.27C458.21,234.09,456.81,234.15,455.35,234.77z" name="Layer 4" zoom="0.8" data-layer-id="0728766976373" style="fill: rgb(251, 144, 177); fill-opacity: 1;"></path><path d="M255.47,343.15c-0.62-4.52-0.17-8.77-0.57-13c-1.01-10.85-5.94-19.96-11.76-28.77c-0.41-0.62-1.66-1.09-0.93-1.95    c0.72-0.85,1.88-0.62,2.79,0.03c1.18,0.85,2,2.02,2.81,3.2c5.47,7.97,8.49,16.77,9.73,26.35c0.51,3.97-0.41,7.73-0.39,11.6    C257.16,341.45,256.82,342.38,255.47,343.15z" name="Layer 5" zoom="0.8" data-layer-id="6579210676404" style="fill: rgb(251, 144, 177); fill-opacity: 1;"></path><path d="M369.64,321.51c-3.56,2.08-7.52,1.58-11.15,2.43c-0.8,0.19-1.79,0.01-1.95-0.99c-0.15-0.96,0.89-1,1.5-1.2    c1.75-0.57,3.56-0.97,5.42-0.91c1.97,0.06,3.88-0.17,5.65-1.09c2.65-1.37,5.18,0.22,7.76,0.32c0.73,0.03,1.11,0.85,1.06,1.65    c-0.07,1.03-0.68,1.78-1.58,2.07c-2.15,0.69-4.23,1.45-5.99,2.92c-0.76,0.63-1.6,0.16-2.29-0.23c-1.11-0.63-0.27-1.49-0.02-2.13    C368.43,323.35,369.09,322.45,369.64,321.51z" name="Layer 6" zoom="0.8" data-layer-id="2088309576437" style="fill: rgb(251, 144, 177); fill-opacity: 1;"></path><path d="M434.08,323.29c2.47,0.53,4.33,1.62,5.4,3.57c1.22,2.2,2.16,4.56,3.16,6.87c0.23,0.52-0.07,1.66-0.28,1.43    c-1.28-1.37-2.15,2.58-3.27,0.16c-0.51-1.1-0.95-2.23-1.5-3.31c-1.05-2.06-1.85-4.3-4.01-5.59c-0.75-0.45-1.16-1.18-0.87-2.06    C432.94,323.61,433.55,323.27,434.08,323.29z" name="Layer 7" zoom="0.8" data-layer-id="3467548476469" style="fill: rgb(251, 144, 177); fill-opacity: 1;"></path><path d="M245.05,254.21c4.76-7.55,3.64-15.84,3.38-24.34c2.59,2.83,0.5,6.83,2.05,8.9c2.39,3.2,0.5,5.43-0.26,7.89    C249.3,249.6,248.18,252.62,245.05,254.21z" name="Layer 8" zoom="0.8" data-layer-id="1021711476498" style="fill: rgb(251, 144, 177); fill-opacity: 1;"></path><path d="M379.31,336.16c-4.04-0.65-8.15-1.27-12.23-2.01c-1.04-0.19-2.52-0.58-2.09-2.03c0.39-1.32,1.67-0.6,2.62-0.43    c4.09,0.74,8.18,1.45,12.27,2.21c0.84,0.16,2.24,0.12,2.07,1.28C381.76,336.45,380.35,336.05,379.31,336.16z" name="Layer 9" zoom="0.8" data-layer-id="0250250576529" style="fill: rgb(251, 144, 177); fill-opacity: 1;"></path><path d="M201.87,329.96c-2.69-2.58-5.06-4.91-7.49-7.19c-0.95-0.89-2.5-1.71-1.42-3.17c0.99-1.33,2.38-0.48,3.55,0.21    C200.28,322.04,201.74,325.47,201.87,329.96z" name="Layer 10" zoom="0.8" data-layer-id="9169551576557" style="fill: rgb(251, 144, 177); fill-opacity: 1;"></path><path d="M342.59,250.89c-1.57,1.55-2.91,0.31-3.76-0.68c-4.1-4.8-6.19-10.4-5.82-16.75c0.07-1.16,0.47-2.38,1.49-2.82    c0.07,6.43,1.35,12.56,5,18.04c0.71,1.06,1.75,1.99,3.14,2.27C342.64,250.95,342.59,250.89,342.59,250.89z" name="Layer 11" zoom="0.8" data-layer-id="5701010876586" style="fill: rgb(251, 144, 177); fill-opacity: 1;"></path><path d="M377.67,332.65c-0.31-1.82,0.54-2.9,0.87-4.09c0.24-0.85,1.17-1.45,0.21-2.66c-0.89-1.13,0.66-2,1.44-2.54    c0.94-0.64,2.23-0.76,3.42-0.5c0.21,0.05,0.51,0.76,0.4,1.01c-0.81,1.84-1.32,4.1-2.72,5.32    C380.16,330.17,378.97,331.21,377.67,332.65z" name="Layer 12" zoom="0.8" data-layer-id="8049493376614" style="fill: rgb(251, 144, 177); fill-opacity: 1;"></path><path d="M383.98,331.23c-0.7,0-0.74-0.48-0.8-1.01c-0.18-1.58,3.2-6.88,4.75-7.45c0.96-0.35,1.58-0.08,1.79,0.95    C389.9,324.64,384.89,331.19,383.98,331.23z" name="Layer 13" zoom="0.8" data-layer-id="0364671276643" style="fill: rgb(251, 144, 177); fill-opacity: 1;"></path><path d="M454.5,333.3c-2.64-4.25-7.05-6.44-10.87-9.32C448.39,324.27,454.01,329.07,454.5,333.3z" name="Layer 14" zoom="0.8" data-layer-id="9418722676671" style="fill: rgb(251, 144, 177); fill-opacity: 1;"></path><path d="M158.5,325.43c0.08-0.29,0.16-0.57,0.24-0.86c2.14,0.15,2.1,1.55,1.67,3.04c-0.22,0.75-0.7,1.43-1.08,2.12    c-0.43,0.79-0.26,2.42-1.68,1.94c-0.97-0.33-0.43-1.63-0.24-2.47C157.69,327.94,158.13,326.69,158.5,325.43z" name="Layer 15" zoom="0.8" data-layer-id="3312718476700" style="fill: rgb(251, 144, 177); fill-opacity: 1;"></path><path d="M196.04,328.91c-1.95-2.65-4.43-4.81-6.9-7.34C192.12,321.67,195.27,325,196.04,328.91z" name="Layer 16" zoom="0.8" data-layer-id="9805121776728" style="fill: rgb(251, 144, 177); fill-opacity: 1;"></path><path d="M341.14,329.78c-2.41-3.03-2.22-7.53,0.5-12.8C340.34,321.2,339.57,325.44,341.14,329.78z" name="Layer 17" zoom="0.8" data-layer-id="1135670576766" style="fill: rgb(251, 144, 177); fill-opacity: 1;"></path><path d="M440.86,323.46c2.45,2.86,4.39,5.39,6.62,7.67C444.25,330.63,441.08,327.06,440.86,323.46z" name="Layer 18" zoom="0.8" data-layer-id="9769706176818" style="fill: rgb(251, 144, 177); fill-opacity: 1;"></path><path d="M162.34,333.38c0.06-3.1,0.98-5.91,3.08-8.31C164.39,327.84,163.37,330.61,162.34,333.38z" name="Layer 19" zoom="0.8" data-layer-id="1655656576847" style="fill: rgb(251, 144, 177); fill-opacity: 1;"></path><path d="M434.12,331.38c-1.6-1.55-3.39-2.93-3.95-5.18C432.5,327.17,433.67,329.03,434.12,331.38z" name="Layer 20" zoom="0.8" data-layer-id="6713251676876" style="fill: rgb(251, 144, 177); fill-opacity: 1;"></path></svg>
